<?xml version="1.0" standalone="no"?>
<!DOCTYPE svg PUBLIC "-//W3C//DTD SVG 20010904//EN"
 "http://www.w3.org/TR/2001/REC-SVG-20010904/DTD/svg10.dtd">
<svg version="1.0" xmlns="http://www.w3.org/2000/svg"
 width="260.000000pt" height="260.000000pt" viewBox="0 0 260.000000 260.000000"
 preserveAspectRatio="xMidYMid meet">
<metadata>
Created by potrace 1.15, written by Peter Selinger 2001-2017
</metadata>
<g transform="translate(0.000000,260.000000) scale(0.100000,-0.100000)"
fill="#000000" stroke="none">
<path d="M0 1300 l0 -1300 1300 0 1300 0 0 1300 0 1300 -1300 0 -1300 0 0
-1300z m2190 975 c47 -30 86 -99 77 -136 -11 -41 -45 -88 -79 -109 -66 -40
-156 -16 -198 52 -40 67 -15 156 55 195 52 30 96 29 145 -2z m-1413 -342 c19
-9 40 -24 46 -35 15 -23 39 -23 85 2 48 25 133 50 170 50 39 0 108 -25 154
-55 52 -34 70 -75 70 -152 0 -55 -9 -82 -66 -217 -36 -84 -66 -158 -66 -164 0
-8 29 -12 90 -12 110 0 154 -17 171 -67 18 -55 -26 -143 -72 -143 -10 0 -21
-4 -24 -10 -4 -6 -75 -10 -183 -9 -150 0 -182 3 -207 18 -37 21 -75 76 -75
107 0 29 58 191 125 349 28 66 28 93 1 120 -56 56 -164 18 -220 -78 -14 -23
-50 -103 -81 -177 -85 -207 -107 -253 -134 -283 -64 -71 -162 -77 -213 -13
-26 32 -22 54 31 183 27 65 84 201 126 303 100 241 103 247 150 276 47 28 75
30 122 7z m1293 -28 c31 -16 60 -61 60 -93 0 -10 -9 -48 -21 -83 -23 -69 -205
-512 -245 -594 -40 -83 -38 -85 66 -85 69 0 97 -4 118 -17 38 -24 42 -32 42
-83 0 -95 -50 -123 -230 -130 l-125 -5 -80 -154 c-89 -171 -151 -250 -233
-294 -133 -72 -317 -76 -448 -9 -44 22 -124 103 -147 149 -9 16 -21 59 -28 95
-10 56 -10 75 5 134 10 38 28 87 41 109 56 97 191 185 285 187 25 0 50 4 56 9
6 5 93 10 194 11 l183 3 44 110 c25 61 72 178 105 260 33 83 69 169 80 192 31
66 23 73 -77 73 -97 0 -134 14 -153 55 -9 19 -10 37 -2 64 14 53 29 69 85 91
42 16 76 19 223 20 136 0 179 -3 202 -15z"/>
<path d="M1160 800 c-121 -42 -158 -156 -74 -229 31 -28 42 -31 98 -31 59 0
68 3 113 38 26 22 66 65 87 98 22 32 48 71 58 86 36 55 30 58 -104 58 -94 -1
-136 -5 -178 -20z"/>
</g>
</svg>
